<svg id="SvgjsSvg1041" xmlns="http://www.w3.org/2000/svg" version="1.1" xmlns:xlink="http://www.w3.org/1999/xlink" xmlns:svgjs="http://svgjs.com/svgjs" width="47" height="54"><defs id="SvgjsDefs1042"></defs><path id="SvgjsPath1043" d="M348.942 641.9C348.942 643.557 350.285 644.9 351.942 644.9C353.599 644.9 354.942 643.557 354.942 641.9L354.944 636.891C355.632 636.925 356.879 636.942 356.879 636.942C356.879 636.942 358.704 636.961 360.935 636.791L360.942 641.9000000000001C360.942 643.5570000000001 362.285 644.9000000000001 363.942 644.9000000000001C365.598 644.9000000000001 366.942 643.5570000000001 366.942 641.9000000000001L366.877 636.1200000000001C370.06100000000004 635.2910000000002 372.879 633.8570000000001 372.879 631.3790000000001L372.879 612.9420000000001C372.879 612.9420000000001 372.817 610.9420000000001 370.879 610.9420000000001L344.94100000000003 610.8800000000001C344.94100000000003 610.8800000000001 342.942 611.0040000000001 342.942 612.8800000000001L342.942 631.3170000000001C342.942 631.3170000000001 343.214 634.5790000000001 348.91200000000003 636.2670000000002ZM351.124 594.683C350.639 594.955 348.791 590.858 347.09200000000004 591.051C346.13300000000004 592.938 348.86400000000003 596.226 348.46200000000005 596.582C345.083 599.582 342.94200000000006 604.241 342.94200000000006 608.982C347.0040000000001 608.982 372.8790000000001 608.982 372.8790000000001 608.982C372.8790000000001 604.028 370.5630000000001 599.178 366.93500000000006 596.187C366.58400000000006 595.897 369.17300000000006 594.836 368.79800000000006 591.0360000000001C366.8190000000001 590.87 364.7660000000001 594.721 364.4100000000001 594.518C362.3640000000001 593.355 360.42800000000005 592.88 357.94200000000006 592.88C355.47900000000004 592.88 353.16400000000004 593.539 351.1240000000001 594.683ZM334.942 613.942L334.942 627.942C334.942 629.599 336.285 630.942 337.942 630.942C339.599 630.942 340.942 629.599 340.942 627.942L340.942 613.942C340.942 612.285 339.599 610.942 337.942 610.942C336.285 610.942 334.942 612.285 334.942 613.942ZM350.942 600.942C352.046 600.942 352.942 601.838 352.942 602.942C352.942 604.047 352.046 604.942 350.942 604.942C349.837 604.942 348.942 604.047 348.942 602.942C348.942 601.838 349.837 600.942 350.942 600.942ZM364.942 600.942C366.046 600.942 366.942 601.838 366.942 602.942C366.942 604.047 366.046 604.942 364.942 604.942C363.837 604.942 362.942 604.047 362.942 602.942C362.942 601.838 363.837 600.942 364.942 600.942ZM374.942 613.942L374.942 627.942C374.942 629.599 376.285 630.942 377.942 630.942C379.599 630.942 380.942 629.599 380.942 627.942L380.942 613.942C380.942 612.285 379.599 610.942 377.942 610.942C376.285 610.942 374.942 612.285 374.942 613.942Z " fill="#616161" transform="matrix(1,0,0,1,-334,-591)"></path></svg>