<svg id="SvgjsSvg1047" xmlns="http://www.w3.org/2000/svg" version="1.1" xmlns:xlink="http://www.w3.org/1999/xlink" xmlns:svgjs="http://svgjs.com/svgjs" width="60" height="57"><defs id="SvgjsDefs1048"></defs><path id="SvgjsPath1049" d="M900.25 607L923.875 607C923.875 613.251 930 613 930 613L944 612.938C944 615.1469999999999 942.209 617 940 617L919.875 617C922.125 617 922.037 614.497 922.037 614.497L922.125 611.376C922.125 609.25 919.858 608.977 919.858 608.977L912.125 608.953C909.875 608.953 909.95 610.838 909.95 610.838L909.964 614.895C909.964 616.769 912 617 912 617L894 617C891.791 617 890 615.209 890 613L890 611.001L898.073 611.0609999999999C898.073 611.0609999999999 900.275 609.185 900.25 606.9999999999999ZM932 589L942 589C945.314 589 948 591.687 948 595.001L948 605C948 608.314 945.314 611.001 942 611.001L932 611.001C928.686 611.001 926 608.314 926 605L926 595.001C926 591.687 928.686 589 932 589ZM916.875 619C922.916 619 927.813 623.835 927.813 629.875C927.813 635.916 922.9159999999999 640.813 916.875 640.813C910.835 640.813 905.938 635.9159999999999 905.938 629.875C905.938 623.835 910.835 619 916.875 619ZM907.875 629.688C907.875 634.693 911.933 638.751 916.937 638.751C921.943 638.751 926 634.693 926 629.688C926 624.682 921.943 620.625 916.937 620.625C911.933 620.625 907.875 624.682 907.875 629.688ZM916.938 624.938C919.699 624.938 921.938 627.176 921.938 629.938C921.938 632.699 919.699 634.937 916.938 634.937C914.176 634.937 911.938 632.699 911.938 629.938C911.938 627.176 914.176 624.938 916.938 624.938ZM890 605L896 605C897.105 605 898 605.896 898 607C898 608.105 897.105 609 896 609L890 609C888.896 609 888 608.105 888 607C888 605.896 888.896 605 890 605ZM933.875 599.969C933.875 601.678 935.26 603.0630000000001 936.969 603.0630000000001C938.677 603.0630000000001 940.0630000000001 601.6780000000001 940.0630000000001 599.969C940.0630000000001 598.2610000000001 938.6770000000001 596.875 936.969 596.875C935.2600000000001 596.875 933.875 598.261 933.875 599.969ZM914 611.001L918 611.001C919.105 611.001 920 611.896 920 613C920 614.105 919.105 614.938 918 614.938L914 614.938C912.895 614.938 912 614.105 912 613C912 611.896 912.895 611.001 914 611.001ZM930.125 629.125C930.125 629.125 930.375 622.251 924.125 619L942 619C943.105 619 944 619.896 944 621.001L944 643C944 644.105 943.105 645.001 942 645.001L892 645.001C890.895 645.001 890 644.105 890 643L890 621.001C890 619.896 890.895 619 892 619L910 619C910 619 903.875 620.625 903.875 629.125C903.875 637.625 909.438 643 916.063 643C922.688 643 930.125 640.063 930.125 629.125Z " fill="#616161" transform="matrix(1,0,0,1,-888,-589)"></path></svg>