<svg id="SvgjsSvg1044" xmlns="http://www.w3.org/2000/svg" version="1.1" xmlns:xlink="http://www.w3.org/1999/xlink" xmlns:svgjs="http://svgjs.com/svgjs" width="62" height="59"><defs id="SvgjsDefs1045"></defs><path id="SvgjsPath1046" d="M607 589L607 629C607 630.657 608.343 632 610 632L666 632C667.657 632 669 630.657 669 629L669 589C669 587.344 667.657 586 666 586L610 586C608.343 586 607 587.344 607 589ZM611.005 589.953L664.995 589.953L665 594.016L665 617.954L664.995 622.016L611.005 622.016L611 617.954L611 594.016ZM629 632.995C629 632.995 629 636.797 629 638.797C629 640.797 625.354 642.974 625.354 642.974C625.354 642.974 624.1460000000001 645.037 625.938 644.974L650 644.974C650 644.974 651.667 644.142 650.833 643.308C650 642.475 646.99 641.568 646.99 638.912C646.99 636.255 646.99 633.0060000000001 646.99 633.0060000000001ZM639.405 623C639.454 623.838 638.833 624.708 637.9879999999999 624.626C637.9649999999999 623.7869999999999 638.6149999999999 623.01 639.405 623ZM639.198 624.697C639.9069999999999 624.684 640.418 624.968 640.687 625.399C640.682 625.406 640.677 625.413 640.673 625.42C640.179 625.62 639.757 626.443 639.985 627.189C640.118 627.621 640.4490000000001 628.0419999999999 640.873 628.177C640.8370000000001 628.381 640.7220000000001 628.583 640.6370000000001 628.749C640.392 629.229 639.9820000000001 629.947 639.3770000000001 630.046C638.855 630.1310000000001 638.5840000000001 629.681 638.009 629.773C637.62 629.836 637.1220000000001 630.1800000000001 636.706 630.01C636.191 629.8 635.713 629.01 635.489 628.492C635.345 628.1619999999999 635.246 627.805 635.166 627.411C634.874 625.968 635.618 624.8939999999999 636.763 624.7189999999999C637.2510000000001 624.6429999999999 637.615 624.957 638.0020000000001 625.0269999999999C638.1790000000001 625.0579999999999 638.6200000000001 624.833 638.782 624.7829999999999C638.921 624.7539999999999 639.0590000000001 624.7259999999999 639.1980000000001 624.6969999999999Z " fill="#616161" transform="matrix(1,0,0,1,-607,-586)"></path></svg>