<svg id="SvgjsSvg1050" xmlns="http://www.w3.org/2000/svg" version="1.1" xmlns:xlink="http://www.w3.org/1999/xlink" xmlns:svgjs="http://svgjs.com/svgjs" width="55" height="66"><defs id="SvgjsDefs1051"></defs><path id="SvgjsPath1052" d="M1223.44 590.91C1228.8700000000001 591.4069999999999 1231.6000000000001 593.1999999999999 1235.41 595.3439999999999L1238.38 592.3749999999999L1236.92 591.0469999999999L1238.8100000000002 588.9849999999999L1243.88 593.1719999999999L1241.94 595.1089999999999L1240.75 594.1719999999999L1238.06 597.3509999999999C1243.85 602.3169999999999 1247.51 609.7109999999999 1247.51 617.9689999999999C1247.51 632.9229999999999 1235.52 645.0459999999999 1220.57 645.0459999999999C1205.61 645.0459999999999 1193.49 632.9229999999999 1193.49 617.9689999999999C1193.49 603.415 1206.04 590.9179999999999 1217.6200000000001 590.9179999999999L1217.6200000000001 584.9219999999999L1215.63 584.9219999999999C1215.63 584.9219999999999 1213.75 584.9839999999999 1213.75 583.2969999999999C1213.75 583.2969999999999 1213.5 580.9839999999999 1215.75 580.9839999999999L1225.44 580.9839999999999C1225.44 580.9839999999999 1227.56 581.1099999999999 1227.56 583.0469999999999C1227.56 583.0469999999999 1227.44 584.9839999999999 1225.44 584.9839999999999L1223.44 584.9839999999999ZM1205.54 603.207C1205.85 603.585 1207.7 605.07 1207.7 605.07L1206.13 607.2C1206.13 607.2 1203.9 604.85 1203.7700000000002 605.018C1201.4200000000003 608.245 1199.6500000000003 612.791 1199.4600000000003 617.048C1201.1900000000003 617.002 1203.5000000000002 616.978 1203.5000000000002 616.978L1203.4600000000003 618.9699999999999C1203.4600000000003 618.9699999999999 1199.4500000000003 618.8119999999999 1199.4500000000003 618.9239999999999C1199.6300000000003 623.3549999999999 1201.1800000000003 627.4139999999999 1203.6800000000003 630.7079999999999C1204.6100000000004 630.1039999999998 1206.3100000000004 628.8619999999999 1206.3100000000004 628.8619999999999L1207.8100000000004 630.4839999999998C1207.8100000000004 630.4839999999998 1205.3600000000004 632.6629999999998 1205.5900000000004 632.8939999999998C1206.2100000000003 633.5069999999998 1206.8600000000004 634.0809999999998 1207.5400000000004 634.6139999999998C1210.8700000000003 637.1969999999998 1215.0000000000005 638.8079999999998 1219.5000000000005 639.0349999999999C1219.4800000000005 637.5529999999999 1219.5800000000004 634.9369999999999 1219.5800000000004 634.9369999999999L1221.4600000000005 634.9489999999998C1221.4600000000005 634.9489999999998 1221.3500000000006 639.0489999999999 1221.4900000000005 639.0429999999999C1226.9700000000005 638.81 1231.8900000000006 636.5249999999999 1235.5100000000004 632.9279999999999C1235.8400000000004 632.5919999999999 1233.1000000000004 630.5759999999999 1233.1000000000004 630.5759999999999L1234.3000000000004 628.8839999999999C1234.3000000000004 628.8839999999999 1237.1900000000005 631.031 1237.3700000000003 630.805C1239.8900000000003 627.5079999999999 1241.4500000000003 623.434 1241.6400000000003 618.982C1241.6500000000003 618.7959999999999 1237.4900000000002 618.9979999999999 1237.4900000000002 618.9979999999999L1237.4100000000003 616.978C1237.4100000000003 616.978 1240.7800000000002 616.982 1241.6300000000003 616.925C1241.4000000000003 612.476 1239.8100000000004 608.4 1237.2600000000004 605.1049999999999C1237.1000000000004 604.9079999999999 1234.4400000000005 607.0379999999999 1234.4400000000005 607.0379999999999L1233.0000000000005 605.2949999999998C1233.0000000000005 605.2949999999998 1234.8800000000006 603.5579999999999 1235.5600000000004 603.1109999999999C1231.7600000000004 599.3379999999999 1226.3900000000003 596.8869999999998 1220.5800000000004 596.8869999999998C1214.6900000000003 596.8869999999998 1209.3700000000003 599.3399999999998 1205.5400000000004 603.2069999999999ZM1223.5 620.016C1223.5 621.7239999999999 1222.12 622.985 1220.41 622.985C1218.7 622.985 1217.44 621.724 1217.44 620.016C1217.44 617.078 1219.5 616.9219999999999 1219.5 616.9219999999999C1219.5 613.0589999999999 1219.5 599.9849999999999 1219.5 599.9849999999999C1219.5 599.4319999999999 1219.95 598.9849999999999 1220.5 598.9849999999999C1221.05 598.9849999999999 1221.5 599.4319999999999 1221.5 599.9849999999999C1221.5 599.9849999999999 1221.5 612.9199999999998 1221.5 616.8589999999999C1221.5 616.8589999999999 1223.5 617.1399999999999 1223.5 620.016Z " fill="#616161" transform="matrix(1,0,0,1,-1193,-580)"></path></svg>